<svg width="783" height="140" viewBox="0 0 783 140" fill="none" xmlns="http://www.w3.org/2000/svg">
<path d="M183.599 28.4881C164.874 22.3664 117.7 7.002 99.935 1.20034C95.0936 -0.400114 91.3725 -0.400114 86.4911 1.20034C66.8055 7.52215 21.5526 22.4064 2.82726 28.4881C-0.0935784 29.4484 -1.41396 31.369 2.14706 33.4095L7.26853 36.1703V55.8159C7.06847 55.976 6.8284 56.176 6.62834 56.3761C3.46744 59.537 3.46744 64.6585 6.62834 67.7794C9.78924 70.9403 14.9107 70.9403 18.0316 67.7794C21.1925 64.6185 21.1925 59.497 18.0316 56.3761C17.8315 56.176 17.6315 55.976 17.3914 55.8159V41.6119L28.9547 47.8137V63.4581C28.9547 64.1383 28.9147 66.0989 28.9147 67.3392C28.9147 67.6993 28.9147 68.0995 28.9547 68.4596V119.114C28.9547 130.597 38.3574 140 49.8407 140H136.585C148.069 140 157.471 130.597 157.471 119.114V65.4987C157.471 64.6985 157.471 63.9383 157.471 63.2181V47.8537L184.279 33.4496C187.84 31.369 186.52 29.4484 183.599 28.4881ZM93.2131 136.279C89.9721 136.279 87.3714 133.678 87.3714 130.437C87.3714 127.236 89.9721 124.596 93.1731 124.596C96.374 124.596 98.9747 127.196 98.9747 130.437C99.0547 133.678 96.414 136.279 93.2131 136.279ZM145.388 121.395H41.0382V93.2667C46.8798 98.148 54.402 101.069 62.6043 101.069C63.9247 101.069 65.2051 100.989 66.4454 100.829C66.6855 100.829 66.9256 100.829 67.1656 100.829C72.047 100.829 76.6483 99.5885 80.6495 97.4278L93.1731 111.512L105.737 97.3878C109.778 99.5885 114.379 100.829 119.301 100.829C119.501 100.829 119.701 100.829 119.901 100.829C121.141 100.989 122.421 101.069 123.742 101.069C131.944 101.069 139.506 98.108 145.348 93.2266V121.395H145.388ZM62.0842 53.4553C71.0067 54.4156 77.9287 61.9777 77.9287 71.1803C77.9287 81.0231 69.9664 89.0254 60.1236 89.0254C50.2808 89.0254 42.2785 81.0632 42.2785 71.1803C42.2785 69.2198 42.5986 67.3392 43.1988 65.5787C44.9193 69.6599 48.9604 72.5007 53.6818 72.5007C59.9636 72.5007 65.085 67.3793 65.085 61.0975C65.045 58.1766 63.9247 55.4959 62.0842 53.4553ZM128.303 53.4553C137.226 54.4156 144.148 61.9777 144.148 71.1803C144.148 81.0231 136.185 89.0254 126.343 89.0254C116.5 89.0254 108.497 81.0632 108.497 71.1803C108.497 69.2198 108.818 67.3392 109.418 65.5787C111.138 69.6599 115.179 72.5007 119.901 72.5007C126.182 72.5007 131.304 67.3793 131.304 61.0975C131.304 58.1766 130.144 55.4959 128.303 53.4553ZM121.581 42.092C120.461 42.3321 112.619 43.5324 107.217 46.0532C107.137 46.0932 107.017 46.1332 106.937 46.2132C106.697 46.3332 106.457 46.4533 106.257 46.5733C100.535 49.4941 95.9338 54.2955 93.2131 60.1372C90.3322 53.9354 85.3308 48.894 79.089 46.0131C74.6478 43.8125 65.8052 42.2921 64.845 42.092C47.6 38.2109 41.7184 37.3307 38.1974 28.4481C43.1988 32.0892 49.9607 32.4093 62.0042 32.4093C73.8075 32.4093 85.0107 35.3701 93.2131 46.6533C101.415 35.3701 112.619 32.4093 124.422 32.4093C136.465 32.4093 143.227 32.0892 148.229 28.4481C144.708 37.2907 138.826 38.2109 121.581 42.092Z" fill="#2B4165"/>
<path d="M22.6732 98.7482C15.7912 100.589 8.54913 100.549 1.70717 98.6681L0.866943 104.15C4.94811 105.31 9.46939 105.63 12.3102 105.63C15.2711 105.63 20.0724 105.15 23.5134 104.19L22.6732 98.7482ZM19.8324 80.1828L18.9921 74.6213C14.7109 76.6218 9.70947 76.5818 5.46826 74.5012L4.62802 80.0628C7.10873 81.0631 9.74948 81.5832 12.3902 81.5832C14.8709 81.5832 17.4317 81.1031 19.8324 80.1828ZM21.7129 92.4263L20.8727 86.9848C18.1519 87.865 15.2711 88.3052 12.3102 88.3052C9.26934 88.3052 6.30849 87.825 3.50769 86.8648L2.66746 92.3463C5.74834 93.2666 8.98926 93.7467 12.3102 93.7467C15.5511 93.7867 18.712 93.3066 21.7129 92.4263Z" fill="#00AEEF"/>
<path d="M196.745 115.339C189.886 108.599 186.426 100.129 186.426 89.9283C186.426 79.907 189.826 71.556 196.626 64.6962C203.486 57.896 212.075 54.4959 222.335 54.4959C234.444 54.4959 243.988 59.3276 250.968 68.9313L237.129 79.6684C232.893 74.4192 227.883 71.7946 222.156 71.7946C217.444 71.7946 213.507 73.5244 210.465 77.0438C207.423 80.5632 205.872 84.858 205.872 89.9879C205.872 95.1775 207.423 99.532 210.465 102.932C213.507 106.451 217.384 108.181 222.156 108.181C227.883 108.181 233.013 105.437 237.546 99.8899L251.743 110.03C244.287 120.29 234.206 125.42 221.56 125.42C211.718 125.361 203.426 122.08 196.745 115.339Z" fill="#2B4165"/>
<path d="M261.227 121.006C257.827 118.024 256.157 113.908 256.157 108.718C256.157 103.409 258.066 99.2934 261.824 96.3705C265.462 93.567 270.473 92.195 276.796 92.195C281.389 92.195 285.624 92.8512 289.442 94.2231V93.3284C289.442 87.6019 285.922 84.7387 278.943 84.7387C274.231 84.7387 269.339 85.6931 264.448 87.6616L260.631 74.5981C267.252 71.8542 274.35 70.4823 281.985 70.4823C291.052 70.4823 297.733 72.6297 302.028 76.9245C305.786 80.6228 307.695 86.23 307.695 93.6863V123.989H289.382V118.56C285.445 122.975 280.255 125.182 273.873 125.182C268.683 125.182 264.448 123.81 261.227 121.006ZM287.115 111.283C288.786 109.673 289.621 107.525 289.621 104.96V102.515C287.473 101.62 285.087 101.143 282.403 101.143C276.736 101.143 273.933 103.409 273.933 107.883C273.933 109.613 274.529 111.045 275.782 112.059C276.975 113.073 278.526 113.609 280.434 113.609C283.238 113.609 285.445 112.834 287.115 111.283Z" fill="#2B4165"/>
<path d="M317.12 71.377H335.612V78.5947C339.966 72.9876 345.156 70.2437 351.3 70.2437C358.458 70.2437 363.528 73.1069 366.511 78.8333C371.521 73.1069 377.367 70.2437 384.108 70.2437C389.774 70.2437 394.188 71.9139 397.35 75.3139C400.511 78.714 402.122 83.4264 402.122 89.5107V124.048H383.63V95.4161C383.63 89.5704 381.244 86.6475 376.413 86.6475C374.146 86.6475 372.297 87.423 370.984 88.9142C369.553 90.4651 368.837 92.6722 368.837 95.4161V124.048H350.345V95.4161C350.345 89.5704 347.959 86.6475 343.128 86.6475C340.861 86.6475 339.071 87.423 337.759 88.9142C336.328 90.4651 335.612 92.6722 335.612 95.4161V124.048H317.12V71.377V71.377Z" fill="#2B4165"/>
<path d="M411.665 71.377H430.157V78.4158C434.63 72.9876 439.939 70.2437 446.143 70.2437C452.645 70.2437 458.073 72.6893 462.487 77.521C467.14 82.7106 469.526 89.4511 469.526 97.6828C469.526 105.974 467.2 112.715 462.606 117.845C458.192 122.796 452.764 125.241 446.262 125.241C439.88 125.241 434.571 122.736 430.216 117.666V139.677H411.725V71.377H411.665ZM448.171 106.392C450.259 104.065 451.273 101.083 451.273 97.5039C451.273 94.0442 450.259 91.1809 448.171 88.9142C446.083 86.7072 443.518 85.5738 440.476 85.5738C437.494 85.5738 434.929 86.7072 432.901 88.9739C430.813 91.2406 429.799 94.1635 429.799 97.6232C429.799 101.083 430.813 103.946 432.901 106.213C434.988 108.48 437.494 109.613 440.476 109.613C443.518 109.732 446.083 108.599 448.171 106.392Z" fill="#2B4165"/>
<path d="M481.874 120.052C478.712 116.532 477.102 111.82 477.102 105.855V71.377H495.593V99.8898C495.593 105.795 498.099 108.778 503.109 108.778C505.376 108.778 507.225 108.062 508.537 106.511C510.029 104.9 510.804 102.693 510.804 99.8898V71.377H529.296V124.048H510.804V116.831C506.45 122.438 501.2 125.182 495.056 125.182C489.39 125.182 485.035 123.452 481.874 120.052Z" fill="#2B4165"/>
<path d="M535.202 117.427L542.121 106.213C548.206 110.209 554.23 112.238 560.255 112.238C563.357 112.238 564.908 111.223 564.908 109.195C564.908 107.704 562.104 106.213 556.437 104.722C550.293 103.051 545.879 101.202 543.195 99.1741C539.556 96.4302 537.767 92.6126 537.767 87.6616C537.767 82.2334 539.795 77.8789 543.792 74.7174C547.609 71.7349 552.679 70.2437 558.883 70.2437C566.996 70.2437 574.213 72.2718 580.596 76.3876L574.273 88.0791C568.427 84.858 563.238 83.1878 558.704 83.1878C555.841 83.1878 554.409 84.0825 554.409 85.9317C554.409 86.8265 555.125 87.6616 556.676 88.3774C557.63 88.9142 559.778 89.63 562.999 90.6441C569.143 92.4336 573.557 94.3424 576.241 96.3109C579.88 99.1145 581.67 102.872 581.67 107.585C581.67 113.252 579.701 117.606 575.705 120.708C571.887 123.69 566.697 125.182 560.136 125.182C550.711 125.182 542.42 122.617 535.202 117.427Z" fill="#2B4165"/>
<path d="M590.319 55.8679H609.228V81.3982H633.446V55.8679H652.355V124.048H633.446V98.16H609.228V124.048H590.319V55.8679Z" fill="#00AEEF"/>
<path d="M667.745 120.052C664.583 116.532 662.973 111.82 662.973 105.855V71.377H681.465V99.8899C681.465 105.795 683.97 108.778 688.98 108.778C691.247 108.778 693.096 108.062 694.409 106.511C695.9 104.9 696.675 102.693 696.675 99.8899V71.377H715.167V124.048H696.675V116.831C692.321 122.438 687.072 125.182 680.928 125.182C675.321 125.182 670.906 123.452 667.745 120.052Z" fill="#00AEEF"/>
<path d="M743.62 117.606V124.048H725.128V52.945H743.62V78.356C748.094 72.9279 753.403 70.1839 759.606 70.1839C766.108 70.1839 771.536 72.6296 775.951 77.4613C780.603 82.6509 782.989 89.3914 782.989 97.6231C782.989 105.915 780.663 112.655 776.07 117.785C771.656 122.736 766.228 125.182 759.726 125.182C753.283 125.182 747.915 122.676 743.62 117.606ZM761.575 106.392C763.663 104.065 764.677 101.083 764.677 97.5038C764.677 94.0441 763.663 91.1809 761.575 88.9142C759.487 86.7071 756.922 85.5737 753.88 85.5737C750.897 85.5737 748.332 86.7071 746.304 88.9738C744.217 91.2405 743.203 94.1634 743.203 97.6231C743.203 101.083 744.217 103.946 746.304 106.213C748.392 108.479 750.897 109.613 753.88 109.613C756.982 109.732 759.547 108.599 761.575 106.392Z" fill="#00AEEF"/>
</svg>
